<?xml version="1.0" encoding="UTF-8"?>
<svg version="1.1" xmlns="http://www.w3.org/2000/svg" width="396" height="358">
<path d="M0 0 C130.68 0 261.36 0 396 0 C396 118.14 396 236.28 396 358 C265.32 358 134.64 358 0 358 C0 239.86 0 121.72 0 0 Z " fill="#FEFEFE" transform="translate(0,0)"/>
<path d="M0 0 C2.91517292 1.07401108 4.77810176 1.77810176 7 4 C11.14834029 3.65430498 14.33829298 1.87153914 18 0 C18.66 0 19.32 0 20 0 C20 3.63 20 7.26 20 11 C23.96 11 27.92 11 32 11 C30.92400224 14.39353139 29.84459017 17.2707139 28.0625 20.375 C26.64599479 23.80330485 26.64599479 23.80330485 27.921875 26.22265625 C29.17531613 28.21900771 30.58038519 30.11818502 32 32 C28.37 33.32 24.74 34.64 21 36 C20.67 39.96 20.34 43.92 20 48 C16.04 48 12.08 48 8 48 C8 51.96 8 55.92 8 60 C4.04 60 0.08 60 -4 60 C-4 63.96 -4 67.92 -4 72 C-8.29 72 -12.58 72 -17 72 C-17 75.96 -17 79.92 -17 84 C-20.96 84 -24.92 84 -29 84 C-28.87625 85.7325 -28.7525 87.465 -28.625 89.25 C-28.52058594 90.71179688 -28.52058594 90.71179688 -28.4140625 92.203125 C-28.00963673 94.93490659 -27.26161058 96.58691945 -26 99 C-25.40260549 105.17307657 -26.17269852 108.08578418 -30 113 C-32.82914769 116.11438239 -35.79914517 119.07949535 -38.78125 122.046875 C-39.63174927 122.89928772 -40.48224854 123.75170044 -41.35852051 124.62994385 C-43.151432 126.42421242 -44.94685603 128.21597343 -46.74462891 130.00537109 C-49.49744668 132.74745663 -52.23940691 135.50007473 -54.98046875 138.25390625 C-56.72592136 139.9980377 -58.47199403 141.74154888 -60.21875 143.484375 C-61.03863403 144.3083075 -61.85851807 145.13223999 -62.70324707 145.98114014 C-63.47084351 146.74243225 -64.23843994 147.50372437 -65.02929688 148.28808594 C-65.70118042 148.9583783 -66.37306396 149.62867065 -67.06530762 150.3192749 C-70.39981299 153.21605938 -73.04179679 154.27130023 -77.4375 154.1875 C-78.54931641 154.17783203 -78.54931641 154.17783203 -79.68359375 154.16796875 C-82 154 -82 154 -84.3984375 153.1015625 C-87.33259492 152.68867263 -87.33259492 152.68867263 -89.98046875 155.60546875 C-91.05946856 156.7904597 -92.12800425 157.98503882 -93.1875 159.1875 C-99.5277709 165.92920165 -105.06465393 169.89305647 -114.5625 170.5 C-122.2508862 170.07964732 -128.43389717 166.52643072 -133.55859375 160.90234375 C-138.49501894 154.38733273 -138.94616547 146.95639141 -138 139 C-135.45369851 130.20919723 -128.00113391 123.46429964 -121 118 C-121.1546875 117.44828125 -121.309375 116.8965625 -121.46875 116.328125 C-122.4924648 111.84184542 -122.79235198 107.54659111 -122 103 C-120.45761634 100.56529491 -118.80918451 98.73796796 -116.7265625 96.75390625 C-114.94497212 94.94410064 -114.00723676 93.31460972 -113 91 C-113.53109375 90.27554688 -114.0621875 89.55109375 -114.609375 88.8046875 C-127.32691333 71.39929746 -127.32691333 71.39929746 -126 61 C-123.95044372 55.46428256 -120.29609734 51.68909533 -115.171875 48.84765625 C-109.91151672 46.79460275 -105.00387575 47.29200909 -99.875 49.5 C-93.86843934 52.85696005 -90.0283127 58.58052826 -86 64 C-83.45909617 62.87070941 -81.8666029 61.8666029 -79.875 59.875 C-75.71320026 57.16078278 -71.84455247 57.49912254 -67 58 C-65.515 58.495 -65.515 58.495 -64 59 C-62.10787263 59.22179785 -60.21115528 59.40614015 -58.3125 59.5625 C-56.559375 59.706875 -54.80625 59.85125 -53 60 C-53 56.04 -53 52.08 -53 48 C-49.04 48 -45.08 48 -41 48 C-41 44.04 -41 40.08 -41 36 C-36.71 36 -32.42 36 -28 36 C-28 32.04 -28 28.08 -28 24 C-24.04 24 -20.08 24 -16 24 C-16 19.71 -16 15.42 -16 11 C-12.04 11 -8.08 11 -4 11 C-3.525625 9.370625 -3.05125 7.74125 -2.5625 6.0625 C-1.125 1.125 -1.125 1.125 0 0 Z " fill="#E08E09" transform="translate(249,101)"/>
<path d="M0 0 C2.91517292 1.07401108 4.77810176 1.77810176 7 4 C11.14834029 3.65430498 14.33829298 1.87153914 18 0 C18.66 0 19.32 0 20 0 C20 3.63 20 7.26 20 11 C23.96 11 27.92 11 32 11 C30.92400224 14.39353139 29.84459017 17.2707139 28.0625 20.375 C26.64599479 23.80330485 26.64599479 23.80330485 27.921875 26.22265625 C29.17531613 28.21900771 30.58038519 30.11818502 32 32 C28.37 33.32 24.74 34.64 21 36 C20.67 39.96 20.34 43.92 20 48 C16.04 48 12.08 48 8 48 C8 51.96 8 55.92 8 60 C4.04 60 0.08 60 -4 60 C-4 63.96 -4 67.92 -4 72 C-7.96 72 -11.92 72 -16 72 C-16 71.67 -16 71.34 -16 71 C-12.7 71 -9.4 71 -6 71 C-6 66.71 -6 62.42 -6 58 C-2.04 58 1.92 58 6 58 C5.7834375 55.1228125 5.7834375 55.1228125 5.5625 52.1875 C5.48128906 51.10855469 5.40007812 50.02960938 5.31640625 48.91796875 C5.09787539 45.94010095 5.09787539 45.94010095 4 43 C3.319375 43.70125 2.63875 44.4025 1.9375 45.125 C-1.20780513 48.27934337 -4.5888386 51.13934304 -8 54 C-8.66 53.67 -9.32 53.34 -10 53 C-9.3387915 52.34402832 -8.67758301 51.68805664 -7.99633789 51.01220703 C-5.54739147 48.58028964 -3.10070247 46.14614635 -0.65551758 43.71044922 C0.40380474 42.6561597 1.46402229 41.60276891 2.52514648 40.55029297 C4.04906961 39.03848143 5.56975784 37.52348098 7.08984375 36.0078125 C8.00628662 35.09660645 8.92272949 34.18540039 9.86694336 33.24658203 C12.35849181 30.62242856 12.92291478 29.709184 13.3125 26.125 C13.23292375 22.97670763 13.23292375 22.97670763 11.5 20.625 C8.07761681 18.40045093 4.93087767 18.3473771 1 19 C-2.02864045 20.84911555 -2.02864045 20.84911555 -4.60571289 23.61816406 C-5.10591949 24.10917099 -5.6061261 24.60017792 -6.12149048 25.10606384 C-7.75882357 26.72358369 -9.36560815 28.36805612 -10.97265625 30.015625 C-12.10566257 31.15086208 -13.24007951 32.28469289 -14.37583923 33.41717529 C-16.7460173 35.78909314 -19.10193887 38.17405298 -21.44799805 40.56982422 C-24.45909789 43.64346825 -27.4982935 46.68736841 -30.54790592 49.72275162 C-32.89012507 52.05856979 -35.21959946 54.40675831 -37.54510307 56.75920868 C-38.66181822 57.88681646 -39.78187057 59.01112919 -40.90526009 60.13208771 C-42.46923824 61.69748863 -44.01594273 63.27810975 -45.55883789 64.86425781 C-46.88498863 66.20994843 -46.88498863 66.20994843 -48.2379303 67.58282471 C-50.24368504 69.79906149 -50.24368504 69.79906149 -49.87937927 72.2008667 C-48.74580379 74.52006327 -47.31018756 75.97945903 -45.4375 77.75 C-44.79683594 78.36359375 -44.15617187 78.9771875 -43.49609375 79.609375 C-42.75552734 80.29773438 -42.75552734 80.29773438 -42 81 C-45 83 -45 83 -48 83 C-48.66 84.65 -49.32 86.3 -50 88 C-49.34 88 -48.68 88 -48 88 C-46.2734375 89.75 -46.2734375 89.75 -44.375 92 C-43.74335938 92.7425 -43.11171875 93.485 -42.4609375 94.25 C-41.97882813 94.8275 -41.49671875 95.405 -41 96 C-41.33 96.66 -41.66 97.32 -42 98 C-42.79172607 97.17685303 -43.58345215 96.35370605 -44.39916992 95.50561523 C-47.33781003 92.45845534 -50.29619903 89.43113139 -53.26098633 86.40942383 C-54.54186323 85.09835517 -55.81730595 83.78195465 -57.0871582 82.46020508 C-58.91258832 80.56207138 -60.75664878 78.68391728 -62.60546875 76.80859375 C-63.17025436 76.21284042 -63.73503998 75.6170871 -64.31694031 75.00328064 C-67.46599786 71.79995912 -67.46599786 71.79995912 -71.7121582 70.88696289 C-74.37156491 72.18076667 -75.46793879 73.50032119 -77 76 C-74.71111356 79.1270451 -72.41842115 82.2512796 -70.125 85.375 C-69.14853516 86.70917969 -69.14853516 86.70917969 -68.15234375 88.0703125 C-67.52714844 88.92109375 -66.90195313 89.771875 -66.2578125 90.6484375 C-65.6817627 91.43395996 -65.10571289 92.21948242 -64.51220703 93.02880859 C-63.00586012 95.08122938 -63.00586012 95.08122938 -61 97 C-61.21522137 99.5570349 -61.69966934 100.70043942 -63.5234375 102.51953125 C-64.43996094 103.15955078 -64.43996094 103.15955078 -65.375 103.8125 C-65.98085937 104.25207031 -66.58671875 104.69164062 -67.2109375 105.14453125 C-69 106 -69 106 -72 105 C-73.73994642 102.7807695 -75.35339819 100.57554619 -76.9375 98.25 C-77.7994299 97.00427223 -78.66269146 95.75946471 -79.52734375 94.515625 C-79.94097168 93.91943359 -80.35459961 93.32324219 -80.78076172 92.70898438 C-82.42972062 90.39766833 -84.19685754 88.1922196 -86 86 C-89.37593745 87.4513332 -91.46112477 89.28228771 -93.96875 91.94921875 C-94.70480469 92.71427734 -95.44085938 93.47933594 -96.19921875 94.26757812 C-97.73893488 95.88702489 -99.27276431 97.51208806 -100.80078125 99.14257812 C-101.53683594 99.90376953 -102.27289063 100.66496094 -103.03125 101.44921875 C-103.69705078 102.15393311 -104.36285156 102.85864746 -105.04882812 103.5847168 C-107 105 -107 105 -109.24804688 104.72192383 C-109.82619141 104.48368896 -110.40433594 104.2454541 -111 104 C-110.125 99.25 -110.125 99.25 -109 97 C-114.22715103 98.87388433 -116.38807664 99.91362294 -119 105 C-119.66 105 -120.32 105 -121 105 C-120.67 108.63 -120.34 112.26 -120 116 C-122.51843226 113.48156774 -122.41126125 112.3778847 -122.5625 108.875 C-122.50795824 104.25107108 -121.72990895 101.99016456 -118.625 98.5625 C-117.99851563 97.96566406 -117.37203125 97.36882812 -116.7265625 96.75390625 C-114.94497212 94.94410064 -114.00723676 93.31460972 -113 91 C-113.53109375 90.27554688 -114.0621875 89.55109375 -114.609375 88.8046875 C-127.32691333 71.39929746 -127.32691333 71.39929746 -126 61 C-123.95044372 55.46428256 -120.29609734 51.68909533 -115.171875 48.84765625 C-109.91151672 46.79460275 -105.00387575 47.29200909 -99.875 49.5 C-93.86843934 52.85696005 -90.0283127 58.58052826 -86 64 C-83.45909617 62.87070941 -81.8666029 61.8666029 -79.875 59.875 C-75.71320026 57.16078278 -71.84455247 57.49912254 -67 58 C-66.01 58.33 -65.02 58.66 -64 59 C-62.10787263 59.22179785 -60.21115528 59.40614015 -58.3125 59.5625 C-56.559375 59.706875 -54.80625 59.85125 -53 60 C-53 56.04 -53 52.08 -53 48 C-49.04 48 -45.08 48 -41 48 C-41 44.04 -41 40.08 -41 36 C-36.71 36 -32.42 36 -28 36 C-28 32.04 -28 28.08 -28 24 C-24.04 24 -20.08 24 -16 24 C-16 19.71 -16 15.42 -16 11 C-12.04 11 -8.08 11 -4 11 C-3.525625 9.370625 -3.05125 7.74125 -2.5625 6.0625 C-1.125 1.125 -1.125 1.125 0 0 Z " fill="#DF8E0C" transform="translate(249,101)"/>
<path d="M0 0 C4.15988958 1.59326634 6.74858392 4.45059831 9.85302734 7.5793457 C10.84479477 8.56181526 10.84479477 8.56181526 11.8565979 9.56413269 C13.24827068 10.94871277 14.634839 12.33843988 16.01660156 13.73291016 C18.1398059 15.87001555 20.28595219 17.98199847 22.43505859 20.09301758 C23.78416709 21.44117525 25.13187332 22.79073794 26.47802734 24.1418457 C27.12371674 24.77427689 27.76940613 25.40670807 28.43466187 26.05830383 C29.31150131 26.95394295 29.31150131 26.95394295 30.20605469 27.86767578 C30.98618423 28.64924797 30.98618423 28.64924797 31.78207397 29.4466095 C32.76708984 31.05981445 32.76708984 31.05981445 32.64256287 33.01766968 C31.56864419 35.5227125 30.23616409 36.98558048 28.32055664 38.92626953 C27.59277512 39.66996292 26.86499359 40.41365631 26.11515808 41.17988586 C25.32353775 41.97170761 24.53191742 42.76352936 23.71630859 43.5793457 C22.50078056 44.80629402 22.50078056 44.80629402 21.26069641 46.05802917 C19.54543924 47.78409144 17.82618682 49.50619125 16.10327148 51.22460938 C13.46131446 53.86559232 10.84139701 56.52717197 8.22216797 59.19067383 C6.55485025 60.86319682 4.88627234 62.53446468 3.21630859 64.2043457 C2.43076096 65.0062886 1.64521332 65.80823151 0.83586121 66.63447571 C0.0986232 67.36240829 -0.63861481 68.09034088 -1.39819336 68.84033203 C-2.04359573 69.48778885 -2.68899811 70.13524567 -3.35395813 70.80232239 C-5.23291016 72.05981445 -5.23291016 72.05981445 -7.27108765 71.93528748 C-9.44278885 70.96615505 -10.75866022 69.93301331 -12.45678711 68.27172852 C-13.3621093 67.39511566 -13.3621093 67.39511566 -14.28572083 66.50079346 C-14.92442612 65.86542664 -15.56313141 65.23005981 -16.22119141 64.57543945 C-16.88378464 63.92283142 -17.54637787 63.27022339 -18.22904968 62.59783936 C-19.6256423 61.2164234 -21.01819851 59.83091646 -22.40698242 58.44165039 C-24.53942633 56.31577983 -26.69469018 54.2150446 -28.85205078 52.11450195 C-30.20573048 50.76962193 -31.55799379 49.42331443 -32.90869141 48.07543945 C-33.55751785 47.44816956 -34.2063443 46.82089966 -34.87483215 46.17462158 C-39.17951146 41.80234689 -39.17951146 41.80234689 -39.42138672 38.43896484 C-37.88453539 35.36242084 -36.00467776 33.38195888 -33.54150391 30.9777832 C-32.84445091 30.28921989 -32.84445091 30.28921989 -32.13331604 29.58674622 C-30.65484332 28.1305671 -29.16304859 26.68895541 -27.67041016 25.24731445 C-26.66233509 24.25931347 -25.65516286 23.27039041 -24.64892578 22.28051758 C-22.18728562 19.86285052 -19.71350343 17.45804861 -17.23291016 15.05981445 C-14.00902779 16.43459697 -12.31987285 17.87078134 -10.25244141 20.68481445 C-9.7284375 21.3912207 -9.20443359 22.09762695 -8.66455078 22.82543945 C-7.86307617 23.93145508 -7.86307617 23.93145508 -7.04541016 25.05981445 C-6.49949219 25.7971582 -5.95357422 26.53450195 -5.39111328 27.29418945 C-1.41721276 32.69120924 -1.41721276 32.69120924 -0.23291016 35.05981445 C3.22634147 33.81064025 5.91402188 32.3845365 8.76708984 30.05981445 C8.15709005 26.58408646 6.84163454 24.56901985 4.64208984 21.8371582 C4.01818359 21.05147461 3.39427734 20.26579102 2.75146484 19.45629883 C1.76919922 18.23910156 1.76919922 18.23910156 0.76708984 16.99731445 C-0.52831947 15.38442786 -1.82015591 13.76866329 -3.10791016 12.1496582 C-3.68283203 11.43672607 -4.25775391 10.72379395 -4.85009766 9.98925781 C-6.23291016 8.05981445 -6.23291016 8.05981445 -7.23291016 5.05981445 C-2.98174139 0.07987389 -2.98174139 0.07987389 0 0 Z " fill="#FEFCF5" transform="translate(178.23291015625,170.940185546875)"/>
<path d="M0 0 C2.91517292 1.07401108 4.77810176 1.77810176 7 4 C11.14834029 3.65430498 14.33829298 1.87153914 18 0 C18.66 0 19.32 0 20 0 C20 3.63 20 7.26 20 11 C23.96 11 27.92 11 32 11 C30.92400224 14.39353139 29.84459017 17.2707139 28.0625 20.375 C26.64599479 23.80330485 26.64599479 23.80330485 27.921875 26.22265625 C29.17531613 28.21900771 30.58038519 30.11818502 32 32 C28.37 33.32 24.74 34.64 21 36 C20.67 39.96 20.34 43.92 20 48 C16.04 48 12.08 48 8 48 C8 51.96 8 55.92 8 60 C4.04 60 0.08 60 -4 60 C-4 63.96 -4 67.92 -4 72 C-7.96 72 -11.92 72 -16 72 C-16 71.67 -16 71.34 -16 71 C-12.7 71 -9.4 71 -6 71 C-6 66.71 -6 62.42 -6 58 C-2.04 58 1.92 58 6 58 C5.7834375 55.1228125 5.7834375 55.1228125 5.5625 52.1875 C5.48128906 51.10855469 5.40007812 50.02960938 5.31640625 48.91796875 C5.09787539 45.94010095 5.09787539 45.94010095 4 43 C3.319375 43.70125 2.63875 44.4025 1.9375 45.125 C-1.20780513 48.27934337 -4.5888386 51.13934304 -8 54 C-8.99 53.505 -8.99 53.505 -10 53 C-9.3387915 52.34402832 -8.67758301 51.68805664 -7.99633789 51.01220703 C-5.54739147 48.58028964 -3.10070247 46.14614635 -0.65551758 43.71044922 C0.40380474 42.6561597 1.46402229 41.60276891 2.52514648 40.55029297 C4.04906961 39.03848143 5.56975784 37.52348098 7.08984375 36.0078125 C8.00628662 35.09660645 8.92272949 34.18540039 9.86694336 33.24658203 C12.35849181 30.62242856 12.92291478 29.709184 13.3125 26.125 C13.23292375 22.97670763 13.23292375 22.97670763 11.5 20.625 C8.07821433 18.40083931 4.93022722 18.34465803 1 19 C-2.00930874 20.85602548 -2.00930874 20.85602548 -4.55810547 23.6340332 C-5.05349319 24.12664642 -5.54888092 24.61925964 -6.0592804 25.12680054 C-7.68173899 26.74973172 -9.27396561 28.39918176 -10.8671875 30.05078125 C-11.99270832 31.1886977 -13.11994405 32.32492025 -14.24880981 33.45951843 C-17.20890363 36.44442253 -20.14378008 39.45299086 -23.07440186 42.46679688 C-25.47187355 44.92432524 -27.88610337 47.36500034 -30.30151176 49.804883 C-35.29125969 54.84528026 -40.26987133 59.89675809 -45.21826172 64.9777832 C-46.09570038 65.87713089 -46.97313904 66.77647858 -47.87716675 67.70307922 C-50.11871272 70.00758438 -50.11871272 70.00758438 -52 73 C-52.125 67.25 -52.125 67.25 -51 65 C-50.34 65 -49.68 65 -49 65 C-49 64.01 -49 63.02 -49 62 C-53.95 61.67 -58.9 61.34 -64 61 C-64 60.67 -64 60.34 -64 60 C-60.37 60 -56.74 60 -53 60 C-53 56.04 -53 52.08 -53 48 C-49.04 48 -45.08 48 -41 48 C-41 44.04 -41 40.08 -41 36 C-36.71 36 -32.42 36 -28 36 C-28 32.04 -28 28.08 -28 24 C-24.04 24 -20.08 24 -16 24 C-16 19.71 -16 15.42 -16 11 C-12.04 11 -8.08 11 -4 11 C-3.525625 9.370625 -3.05125 7.74125 -2.5625 6.0625 C-1.125 1.125 -1.125 1.125 0 0 Z " fill="#E08E0B" transform="translate(249,101)"/>
<path d="M0 0 C3.33377678 2.36142522 4.69652395 3.8619648 5.75 7.8125 C3.71078828 16.47914983 -6.62137562 23.75228726 -12.74609375 29.84375 C-13.76764047 30.86342709 -14.78896326 31.88332856 -15.81007385 32.90344238 C-18.47266437 35.56225061 -21.13824599 38.21803958 -23.80450439 40.87316895 C-26.53492671 43.59328393 -29.26245074 46.31630185 -31.99023438 49.0390625 C-37.324022 54.36218863 -42.66097916 59.68212218 -48 65 C-51.31115963 63.42400077 -53.66702538 61.68825694 -56.3125 59.125 C-57.03050781 58.44695312 -57.74851563 57.76890625 -58.48828125 57.0703125 C-60 55 -60 55 -59.88624573 53.19158936 C-58.63003611 50.08511952 -56.6755627 48.25457484 -54.33178711 45.86425781 C-53.84705933 45.36624161 -53.36233154 44.8682254 -52.86291504 44.3551178 C-51.25927835 42.71281753 -49.64434522 41.08226181 -48.02734375 39.453125 C-46.9044274 38.31548634 -45.78159019 37.17776955 -44.65882874 36.03997803 C-42.30303187 33.65719503 -39.94059657 31.28120732 -37.57446289 28.90869141 C-34.54825153 25.87161193 -31.5482919 22.80994547 -28.55396175 19.74147415 C-26.24339486 17.38246907 -23.91499615 15.04169562 -21.58136177 12.70552826 C-20.46761525 11.58456121 -19.36047605 10.45698807 -18.26026726 9.32273102 C-16.7165346 7.73492696 -15.14931569 6.17452763 -13.57397461 4.61816406 C-12.68874619 3.72421936 -11.80351776 2.83027466 -10.89146423 1.90924072 C-6.88456947 -0.73652144 -4.7417134 -0.52053102 0 0 Z " fill="#FDFCF5" transform="translate(258,119)"/>
<path d="M0 0 C6.03331362 4.98404168 11.5184171 10.41915303 17 16 C15.41948722 19.85249989 12.94555446 22.28904016 10 25.1875 C9.113125 26.06792969 8.22625 26.94835937 7.3125 27.85546875 C3.45712039 31.43081234 0.58194081 31.33668627 -4.51953125 31.28515625 C-8.03197119 30.88136394 -9.67802118 29.61222617 -12 27 C-14.52013745 23.51981019 -14.36793894 20.19450396 -14 16 C-11.86307109 11.66877495 -8.74782647 8.50757681 -5.3125 5.1875 C-4.80138672 4.68541016 -4.29027344 4.18332031 -3.76367188 3.66601562 C-2.51365638 2.43936491 -1.2574532 1.21902509 0 0 Z " fill="#FEFCF3" transform="translate(137,227)"/>
<path d="M0 0 C1.32 0 2.64 0 4 0 C6.74386457 3.45523687 7.49646154 6.66956925 8 11 C7.01 11.33 6.02 11.66 5 12 C5.99 14.31 6.98 16.62 8 19 C8.61875 18.2265625 8.61875 18.2265625 9.25 17.4375 C9.8275 16.963125 10.405 16.48875 11 16 C13.1875 16.3125 13.1875 16.3125 15 17 C14.01 17.33 13.02 17.66 12 18 C11.67 21.96 11.34 25.92 11 30 C7.04 30 3.08 30 -1 30 C-1 33.96 -1 37.92 -1 42 C-4.96 42 -8.92 42 -13 42 C-13 45.96 -13 49.92 -13 54 C-16.96 54 -20.92 54 -25 54 C-25 53.67 -25 53.34 -25 53 C-21.7 53 -18.4 53 -15 53 C-15 48.71 -15 44.42 -15 40 C-11.04 40 -7.08 40 -3 40 C-3.144375 38.081875 -3.28875 36.16375 -3.4375 34.1875 C-3.51871094 33.10855469 -3.59992188 32.02960938 -3.68359375 30.91796875 C-3.90212461 27.94010095 -3.90212461 27.94010095 -5 25 C-5.680625 25.70125 -6.36125 26.4025 -7.0625 27.125 C-10.20780513 30.27934337 -13.5888386 33.13934304 -17 36 C-17.66 35.67 -18.32 35.34 -19 35 C-18.3387915 34.34402832 -17.67758301 33.68805664 -16.99633789 33.01220703 C-14.54739147 30.58028964 -12.10070247 28.14614635 -9.65551758 25.71044922 C-8.59619526 24.6561597 -7.53597771 23.60276891 -6.47485352 22.55029297 C-4.95093039 21.03848143 -3.43024216 19.52348098 -1.91015625 18.0078125 C-0.99371338 17.09660645 -0.07727051 16.18540039 0.86694336 15.24658203 C3.33115644 12.65121878 3.91929312 11.72636188 4.3125 8.1875 C3.93193325 4.30571912 2.63085134 2.79527955 0 0 Z " fill="#E18D03" transform="translate(258,119)"/>
<path d="M0 0 C2.00260028 1.91076506 3.58093567 3.64621441 5.25 5.8125 C5.69601563 6.35970703 6.14203125 6.90691406 6.6015625 7.47070312 C8.59173172 9.95841465 9.98527625 11.95582875 11 15 C8.36 17.64 5.72 20.28 3 23 C-8.91075855 11.8111056 -8.91075855 11.8111056 -9.125 5.0625 C-7.41679418 0.41238416 -4.74650921 -0.87768292 0 0 Z " fill="#FDF7E6" transform="translate(144,161)"/>
<path d="M0 0 C3.96 0 7.92 0 12 0 C12 0.66 12 1.32 12 2 C8.7 2 5.4 2 2 2 C2.495 6.95 2.495 6.95 3 12 C-1.38498404 14.92332269 -4.7774672 14.1356502 -10 14 C-10.33 17.63 -10.66 21.26 -11 25 C-15.29 25 -19.58 25 -24 25 C-24 29.29 -24 33.58 -24 38 C-27.3 38 -30.6 38 -34 38 C-34 42.29 -34 46.58 -34 51 C-38.0773791 45.56349453 -37.23824756 42.67093166 -37 36 C-33.04 36 -29.08 36 -25 36 C-25 32.04 -25 28.08 -25 24 C-20.71 24 -16.42 24 -12 24 C-12 20.04 -12 16.08 -12 12 C-8.04 12 -4.08 12 0 12 C0 8.04 0 4.08 0 0 Z " fill="#FEF9D6" transform="translate(257,149)"/>
<path d="M0 0 C1.32 0.33 2.64 0.66 4 1 C3.01 1.33 2.02 1.66 1 2 C0.67 5.96 0.34 9.92 0 14 C-3.96 14 -7.92 14 -12 14 C-12 17.96 -12 21.92 -12 26 C-15.96 26 -19.92 26 -24 26 C-24 29.96 -24 33.92 -24 38 C-27.96 38 -31.92 38 -36 38 C-36 37.67 -36 37.34 -36 37 C-32.7 37 -29.4 37 -26 37 C-26 32.71 -26 28.42 -26 24 C-22.04 24 -18.08 24 -14 24 C-14 20.04 -14 16.08 -14 12 C-10.04 12 -6.08 12 -2 12 C-2.04125 10.7625 -2.0825 9.525 -2.125 8.25 C-2.13658291 4.98362038 -1.8568702 2.7853053 0 0 Z " fill="#D3942D" transform="translate(269,135)"/>
<path d="M0 0 C4.29 0 8.58 0 13 0 C13 0.33 13 0.66 13 1 C9.04 1 5.08 1 1 1 C1 5.29 1 9.58 1 14 C-2.3 14 -5.6 14 -9 14 C-9 18.29 -9 22.58 -9 27 C-13.0773791 21.56349453 -12.23824756 18.67093166 -12 12 C-8.04 12 -4.08 12 0 12 C0 8.04 0 4.08 0 0 Z " fill="#F7DCA9" transform="translate(232,173)"/>
<path d="M0 0 C1.65 0.66 3.3 1.32 5 2 C4.67 2.66 4.34 3.32 4 4 C2.68 3.67 1.36 3.34 0 3 C-0.12375 3.721875 -0.2475 4.44375 -0.375 5.1875 C-0.99113189 7.96009349 -1.91731029 10.38129929 -3 13 C-4.79133978 13.05391993 -6.58313899 13.09275571 -8.375 13.125 C-9.37273437 13.14820312 -10.37046875 13.17140625 -11.3984375 13.1953125 C-14 13 -14 13 -16 11 C-12.04 11 -8.08 11 -4 11 C-3.2884375 8.5559375 -3.2884375 8.5559375 -2.5625 6.0625 C-1.125 1.125 -1.125 1.125 0 0 Z " fill="#E0A23D" transform="translate(249,101)"/>
<path d="M0 0 C1.32 0.33 2.64 0.66 4 1 C0.7 4.3 -2.6 7.6 -6 11 C-8 8 -8 8 -7.8125 5.9375 C-7 4 -7 4 -4 2 C-1.8125 2.375 -1.8125 2.375 0 3 C0 2.01 0 1.02 0 0 Z " fill="#DF9217" transform="translate(134,226)"/>
<path d="M0 0 C0 4.91075921 -3.69530187 7.60955122 -7 11 C-8.94602014 12.76450416 -10.92714711 14.3821636 -13 16 C-13.66 15.67 -14.32 15.34 -15 15 C-10.05 10.05 -5.1 5.1 0 0 Z " fill="#FFF3D7" transform="translate(159,188)"/>
<path d="M0 0 C0.99 0 1.98 0 3 0 C3.70703125 1.77734375 3.70703125 1.77734375 4 4 C2.63671875 5.81640625 2.63671875 5.81640625 0.6875 7.5625 C-1.64358565 9.68553744 -3.22576361 11.33864542 -5 14 C-5.125 8.25 -5.125 8.25 -4 6 C-3.34 6 -2.68 6 -2 6 C-1.34 4.02 -0.68 2.04 0 0 Z " fill="#DF9318" transform="translate(202,160)"/>
<path d="M0 0 C0.33 1.32 0.66 2.64 1 4 C-1.4375 6.75 -1.4375 6.75 -4 9 C-4.66 8.67 -5.32 8.34 -6 8 C-6.33 9.32 -6.66 10.64 -7 12 C-8.32 11.67 -9.64 11.34 -11 11 C-7.37 7.37 -3.74 3.74 0 0 Z " fill="#DA9728" transform="translate(238,155)"/>
<path d="M0 0 C3.96 0 7.92 0 12 0 C12 0.66 12 1.32 12 2 C8.7 2 5.4 2 2 2 C2 4.64 2 7.28 2 10 C1.01 10.495 1.01 10.495 0 11 C0 7.37 0 3.74 0 0 Z " fill="#D89427" transform="translate(208,137)"/>
<path d="M0 0 C0.66 0 1.32 0 2 0 C2 0.66 2 1.32 2 2 C2.99 2.33 3.98 2.66 5 3 C1.7 6.3 -1.6 9.6 -5 13 C-5.33 11.68 -5.66 10.36 -6 9 C-5.01 9 -4.02 9 -3 9 C-3.33 7.35 -3.66 5.7 -4 4 C-2.35 4.33 -0.7 4.66 1 5 C0.67 3.35 0.34 1.7 0 0 Z " fill="#DB9623" transform="translate(242,120)"/>
<path d="M0 0 C1.10408203 0.36931641 1.10408203 0.36931641 2.23046875 0.74609375 C1.48796875 1.30296875 0.74546875 1.85984375 -0.01953125 2.43359375 C-2.6866112 4.67636553 -4.68509357 6.9668435 -6.76953125 9.74609375 C-8.08953125 9.08609375 -9.40953125 8.42609375 -10.76953125 7.74609375 C-9.55993509 6.3744177 -8.32601937 5.02415766 -7.08203125 3.68359375 C-6.39753906 2.92949219 -5.71304688 2.17539063 -5.0078125 1.3984375 C-2.76953125 -0.25390625 -2.76953125 -0.25390625 0 0 Z " fill="#FCEFCD" transform="translate(164.76953125,253.25390625)"/>
<path d="M0 0 C1.32 0 2.64 0 4 0 C6.74386457 3.45523687 7.49646154 6.66956925 8 11 C7.01 11.33 6.02 11.66 5 12 C5 12.99 5 13.98 5 15 C3.35 15.66 1.7 16.32 0 17 C0.66 16.13375 1.32 15.2675 2 14.375 C4.17624741 10.70258249 4.7092595 9.16689958 4 5 C2.12230858 2.15079947 2.12230858 2.15079947 0 0 Z " fill="#D89628" transform="translate(258,119)"/>
<path d="M0 0 C3.96 0 7.92 0 12 0 C10.25 5.75 10.25 5.75 8 8 C8 6.35 8 4.7 8 3 C6.865625 2.87625 5.73125 2.7525 4.5625 2.625 C3.386875 2.41875 2.21125 2.2125 1 2 C0.67 1.34 0.34 0.68 0 0 Z " fill="#DEA03A" transform="translate(269,112)"/>
<path d="M0 0 C0.66 0.33 1.32 0.66 2 1 C2 1.66 2 2.32 2 3 C6.62 3 11.24 3 16 3 C11.9453778 5.70308147 8.76123668 5.54301708 4 5 C1.48098014 4.2062105 -0.6350342 3.20764211 -3 2 C-2.01 1.34 -1.02 0.68 0 0 Z " fill="#D89C38" transform="translate(126,266)"/>
<path d="M0 0 C2.375 0.25 2.375 0.25 5 1 C7.21530556 3.9906625 7.50540048 7.37293686 8 11 C2.19794344 5.35475578 2.19794344 5.35475578 0 2 C0 1.34 0 0.68 0 0 Z " fill="#DA921E" transform="translate(125,175)"/>
<path d="M0 0 C0.33 1.65 0.66 3.3 1 5 C0.01 4.67 -0.98 4.34 -2 4 C-2.33 4.99 -2.66 5.98 -3 7 C-3.33 6.01 -3.66 5.02 -4 4 C-6.01508358 3.26676204 -6.01508358 3.26676204 -8 3 C-5.53387212 -0.1151089 -3.89156016 -0.31553191 0 0 Z " fill="#E58C02" transform="translate(200,162)"/>
<path d="M0 0 C0 3.63 0 7.26 0 11 C-0.66 11 -1.32 11 -2 11 C-2.33 8.36 -2.66 5.72 -3 3 C-4.65 3.33 -6.3 3.66 -8 4 C-6.4425489 0.88509781 -3.40085499 0 0 0 Z " fill="#D1922A" transform="translate(269,101)"/>
<path d="M0 0 C0.33 1.32 0.66 2.64 1 4 C-3.39453125 8.00390625 -3.39453125 8.00390625 -5 9 C-5.99 8.67 -6.98 8.34 -8 8 C-5.36 5.36 -2.72 2.72 0 0 Z " fill="#D99321" transform="translate(203,212)"/>
<path d="M0 0 C0 4.13122742 -1.4277594 5.81854452 -4 9 C-7.25 10.375 -7.25 10.375 -10 11 C-6.79239749 7.19364503 -3.59253891 3.45436433 0 0 Z " fill="#D99A30" transform="translate(226,167)"/>
<path d="M0 0 C0 4.09089094 -1.69866948 5.44918487 -4.33203125 8.4140625 C-6.36890116 10.35075848 -8.29054445 11.28279118 -11 12 C-7.49102731 7.81576108 -3.91939465 3.80411834 0 0 Z " fill="#D99C34" transform="translate(250,143)"/>
<path d="M0 0 C0.33 0 0.66 0 1 0 C1.33 4.29 1.66 8.58 2 13 C1.01 12.67 0.02 12.34 -1 12 C-1.02687279 10.18757948 -1.04633715 8.37504767 -1.0625 6.5625 C-1.07410156 5.55316406 -1.08570312 4.54382813 -1.09765625 3.50390625 C-1 1 -1 1 0 0 Z " fill="#FDF0CA" transform="translate(110,241)"/>
<path d="M0 0 C0.33 1.32 0.66 2.64 1 4 C-0.6875 6.3125 -0.6875 6.3125 -3 8 C-4.32 7.67 -5.64 7.34 -7 7 C-4.69 4.69 -2.38 2.38 0 0 Z " fill="#FEFBE3" transform="translate(236,133)"/>
<path d="M0 0 C0.66 0.99 1.32 1.98 2 3 C0.85546875 4.51953125 0.85546875 4.51953125 -1 6 C-3.69921875 6.07421875 -3.69921875 6.07421875 -6.6875 5.6875 C-8.17830078 5.50767578 -8.17830078 5.50767578 -9.69921875 5.32421875 C-10.45847656 5.21722656 -11.21773437 5.11023438 -12 5 C-12 4.67 -12 4.34 -12 4 C-10.95199219 3.81824219 -10.95199219 3.81824219 -9.8828125 3.6328125 C-8.51769531 3.38144531 -8.51769531 3.38144531 -7.125 3.125 C-5.76761719 2.88136719 -5.76761719 2.88136719 -4.3828125 2.6328125 C-1.83494012 2.16955297 -1.83494012 2.16955297 0 0 Z " fill="#DF9C32" transform="translate(144,254)"/>
<path d="M0 0 C0.33 0.99 0.66 1.98 1 3 C0.01 4.485 0.01 4.485 -1 6 C-1.24187651 8.74518321 -1.24187651 8.74518321 -1.125 11.6875 C-1.10695312 12.68136719 -1.08890625 13.67523438 -1.0703125 14.69921875 C-1.04710937 15.45847656 -1.02390625 16.21773437 -1 17 C-3.59200129 14.40799871 -3.29802368 13.22477771 -3.3125 9.625 C-3.32925781 8.66851562 -3.34601563 7.71203125 -3.36328125 6.7265625 C-2.95204261 3.64006172 -2.05500649 2.28816026 0 0 Z " fill="#D59630" transform="translate(130,200)"/>
<path d="M0 0 C2.475 0.99 2.475 0.99 5 2 C4.67 2.66 4.34 3.32 4 4 C2.68 3.67 1.36 3.34 0 3 C-0.33 4.65 -0.66 6.3 -1 8 C-1.66 8 -2.32 8 -3 8 C-1.125 1.125 -1.125 1.125 0 0 Z " fill="#D99A35" transform="translate(249,101)"/>
<path d="M0 0 C2.3125 0.1875 2.3125 0.1875 4 1 C3.01 1 2.02 1 1 1 C0.71125 1.5775 0.4225 2.155 0.125 2.75 C-1.4375 5.875 -1.4375 5.875 -3 9 C-3.66 7.68 -4.32 6.36 -5 5 C-2.75 2.4375 -2.75 2.4375 0 0 Z " fill="#FEF4CE" transform="translate(176,171)"/>
<path d="M0 0 C0.99 0.33 1.98 0.66 3 1 C2.360625 1.66 1.72125 2.32 1.0625 3 C-1.58912502 6.85690912 -1.68667121 9.37840033 -2 14 C-2.33 14 -2.66 14 -3 14 C-3.32374517 8.49633208 -3.53286034 4.56327794 0 0 Z " fill="#FCE8BB" transform="translate(129,198)"/>
<path d="M0 0 C0.66 0 1.32 0 2 0 C2.66 1.65 3.32 3.3 4 5 C3.01 5.66 2.02 6.32 1 7 C-0.32 6.34 -1.64 5.68 -3 5 C-2.505 4.360625 -2.01 3.72125 -1.5 3.0625 C0.09802862 1.29025661 0.09802862 1.29025661 0 0 Z " fill="#DA9015" transform="translate(154,174)"/>
<path d="M0 0 C0.7425 0.845625 1.485 1.69125 2.25 2.5625 C3.1575 3.366875 4.065 4.17125 5 5 C7.27523089 4.95502158 7.27523089 4.95502158 9 4 C8.67 4.99 8.34 5.98 8 7 C6.0625 7.75 6.0625 7.75 4 8 C3.34 7.67 2.68 7.34 2 7 C1.26924352 4.6859378 0.59861742 2.35171131 0 0 Z " fill="#D8942A" transform="translate(158,160)"/>
<path d="M0 0 C0 3.16880694 -0.2058242 4.43689172 -2 7 C-4.625 7.75 -4.625 7.75 -7 8 C-6.02133662 6.85373678 -5.04205413 5.70800212 -4.0625 4.5625 C-3.51722656 3.92441406 -2.97195312 3.28632813 -2.41015625 2.62890625 C-1.63204305 1.73008851 -0.84063472 0.84063472 0 0 Z " fill="#D99326" transform="translate(194,221)"/>
<path d="M0 0 C0.33 0.99 0.66 1.98 1 3 C-0.4375 5.1875 -0.4375 5.1875 -2 7 C-3.32 6.67 -4.64 6.34 -6 6 C-4.02 4.02 -2.04 2.04 0 0 Z " fill="#DA9425" transform="translate(210,205)"/>
<path d="M0 0 C0 1.65 0 3.3 0 5 C-1.8125 6.0625 -1.8125 6.0625 -4 7 C-4.99 6.67 -5.98 6.34 -7 6 C-6.02388578 4.99702025 -5.04402202 3.99768827 -4.0625 3 C-3.51722656 2.443125 -2.97195312 1.88625 -2.41015625 1.3125 C-1 0 -1 0 0 0 Z " fill="#D8992C" transform="translate(258,136)"/>
<path d="M0 0 C0.33 0.66 0.66 1.32 1 2 C-1.47812494 5.45167403 -2.79606135 7.23163306 -7 8 C-6.02133662 6.85373678 -5.04205413 5.70800212 -4.0625 4.5625 C-3.51722656 3.92441406 -2.97195312 3.28632813 -2.41015625 2.62890625 C-1.63204305 1.73008851 -0.84063472 0.84063472 0 0 Z " fill="#FDEBC6" transform="translate(198,234)"/>
<path d="M0 0 C0 3.90838866 -1.50567876 5.11594107 -4 8 C-4.99 7.67 -5.98 7.34 -7 7 C-4.69 4.69 -2.38 2.38 0 0 Z " fill="#D89228" transform="translate(186,229)"/>
<path d="M0 0 C1.32 0.33 2.64 0.66 4 1 C0.535 3.97 0.535 3.97 -3 7 C-3 5.68 -3 4.36 -3 3 C-2.01 3 -1.02 3 0 3 C0 2.01 0 1.02 0 0 Z " fill="#DC9A33" transform="translate(134,226)"/>
<path d="M0 0 C1 3 1 3 0.125 5.0625 C-0.24625 5.701875 -0.6175 6.34125 -1 7 C-1.33 7.66 -1.66 8.32 -2 9 C-2.66 8.34 -3.32 7.68 -4 7 C-3.68134222 3.70720291 -2.45484649 2.13464912 0 0 Z " fill="#FDF2CE" transform="translate(202,167)"/>
<path d="M0 0 C1.98 0.495 1.98 0.495 4 1 C3.2884375 2.0828125 3.2884375 2.0828125 2.5625 3.1875 C1.05847097 5.89475226 0.43400818 7.96194275 0 11 C-0.33 11 -0.66 11 -1 11 C-0.67 7.37 -0.34 3.74 0 0 Z " fill="#D6932B" transform="translate(123,237)"/>
<path d="M0 0 C0.33 0.99 0.66 1.98 1 3 C-0.32 4.32 -1.64 5.64 -3 7 C-3.99 6.67 -4.98 6.34 -6 6 C-4.02 4.02 -2.04 2.04 0 0 Z " fill="#FDFAE5" transform="translate(133,231)"/>
<path d="M0 0 C4.875 4.625 4.875 4.625 6 8 C5.01 8 4.02 8 3 8 C3 7.01 3 6.02 3 5 C2.34 5 1.68 5 1 5 C0.67 3.35 0.34 1.7 0 0 Z " fill="#FDF0CB" transform="translate(166,191)"/>
<path d="M0 0 C0.33 0.66 0.66 1.32 1 2 C-0.32 3.65 -1.64 5.3 -3 7 C-3.99 6.67 -4.98 6.34 -6 6 C-4.02 4.02 -2.04 2.04 0 0 Z " fill="#FEEEC9" transform="translate(209,223)"/>
<path d="M0 0 C0.33 0.99 0.66 1.98 1 3 C-0.32 3.99 -1.64 4.98 -3 6 C-3.66 5.67 -4.32 5.34 -5 5 C-3.35 3.35 -1.7 1.7 0 0 Z " fill="#DC992C" transform="translate(124,223)"/>
<path d="M0 0 C0.99 0.33 1.98 0.66 3 1 C1.79618552 3.49361571 0.54571278 5.68143083 -1 8 C-1.125 2.25 -1.125 2.25 0 0 Z " fill="#DB9929" transform="translate(198,166)"/>
<path d="M0 0 C0.33 0 0.66 0 1 0 C1.09978121 3.49234244 0.77842938 6.59437148 0 10 C-0.99 8.68 -1.98 7.36 -3 6 C-2.01 4.02 -1.02 2.04 0 0 Z " fill="#FEF0CF" transform="translate(278,118)"/>
</svg>
