<svg xmlns="http://www.w3.org/2000/svg" viewBox="0 0 50 45.833" fill="#f4a261">
  <path d="M14.515 31.735c0.127 -1.054 0.767 -1.729 1.454 -2.373 0.477 -0.448 0.894 -0.835 0.588 -1.656 -0.271 -0.725 0.177 -1.4 0.756 -1.881 0.515 -0.427 0.529 -0.8 0.079 -1.285a8.333 8.333 0 0 1 -0.894 -1.198c-0.731 -1.133 -0.494 -2.658 0.506 -3.396 1.108 -0.817 2.569 -0.604 3.49 0.492 0.315 0.377 0.544 0.833 0.954 1.1 0.271 -0.044 0.383 -0.254 0.556 -0.377 0.604 -0.425 1.248 -0.588 1.965 -0.325 0.242 0.09 0.475 0.196 0.746 0.202 0.854 0.021 0.919 0.008 0.869 -0.835 -0.04 -0.66 0.244 -0.881 0.833 -0.783 0.633 0.104 0.838 -0.171 0.748 -0.754 -0.102 -0.658 0.177 -0.929 0.833 -0.844q0.85 0.106 0.733 -0.748c-0.083 -0.596 0.125 -0.929 0.775 -0.831 0.696 0.104 0.883 -0.235 0.804 -0.86 -0.052 -0.417 0.054 -0.779 0.577 -0.698 0.819 0.127 1.269 -0.198 1.419 -1.002a0.646 0.646 0 0 1 0.4 -0.51c0.729 0.963 1.552 0.429 2.308 -0.008 0.321 0.279 0.277 0.577 0.26 0.848 -0.033 0.51 0.177 0.717 0.685 0.675 0.231 -0.019 0.479 -0.044 0.794 0.154 -0.283 0.823 -1.152 1.713 0.029 2.467 -0.279 0.373 -0.577 0.404 -0.84 0.463 -0.513 0.117 -0.74 0.402 -0.673 0.923 0.081 0.642 -0.119 1.004 -0.848 0.894 -0.602 -0.092 -0.85 0.215 -0.777 0.792 0.077 0.613 -0.169 0.9 -0.792 0.84 -0.588 -0.056 -0.856 0.208 -0.775 0.798 0.088 0.648 -0.225 0.867 -0.825 0.794q-0.85 -0.104 -0.746 0.744c0.081 0.656 -0.2 0.927 -0.856 0.833 -0.59 -0.083 -0.769 0.223 -0.725 0.765a3.125 3.125 0 0 0 0.158 0.758c0.279 0.808 0.154 1.558 -0.444 2.171a404.167 404.167 0 0 1 -4.683 4.704 2.021 2.021 0 0 1 -2.158 0.513c-0.313 -0.104 -0.542 -0.021 -0.76 0.2 -0.379 0.385 -0.756 0.779 -1.158 1.142a3.292 3.292 0 0 1 -3.758 0.44 3.271 3.271 0 0 1 -1.608 -3.344m6.521 -7.094q-1.173 1.171 -2.352 2.335c-0.288 0.283 -0.404 0.556 -0.071 0.885a981.25 981.25 0 0 1 3.542 3.538c0.235 0.235 0.444 0.221 0.669 -0.004Q25 29.204 27.188 27.025c0.26 -0.258 0.235 -0.479 -0.006 -0.721l-3.519 -3.558c-0.271 -0.273 -0.523 -0.217 -0.79 0.037 -0.242 0.233 -0.298 0.423 -0.069 0.717 0.548 0.698 1.04 1.442 1.6 2.129 0.369 0.45 0.333 0.75 -0.171 1.021a1.458 1.458 0 0 0 -0.315 0.229c-0.36 0.342 -0.629 0.246 -0.9 -0.131q-0.66 -0.927 -1.365 -1.821c-0.131 -0.171 -0.223 -0.458 -0.621 -0.285m7.931 -5.119c-0.721 0.717 -1.465 1.415 -2.163 2.154 -0.913 0.969 -1.021 0.696 0.094 1.831 0.362 0.371 0.619 0.377 1 -0.013 1.575 -1.61 3.185 -3.183 4.781 -4.775 0.415 -0.413 0.838 -0.815 1.229 -1.248 0.496 -0.55 0.508 -1.06 0.077 -1.498 -0.417 -0.423 -0.952 -0.41 -1.512 0.037 -0.135 0.106 -0.258 0.231 -0.379 0.352zm-12.744 12.606c0.019 0.729 0.381 1.254 1.046 1.498s1.223 -0.033 1.683 -0.542q0.396 -0.431 0.821 -0.833c0.24 -0.225 0.248 -0.423 0.008 -0.656a89.583 89.583 0 0 1 -1.46 -1.479c-0.179 -0.183 -0.354 -0.24 -0.56 -0.052 -0.625 0.567 -1.306 1.09 -1.54 2.067m2.308 -10.883c-0.665 0.152 -0.854 0.492 -0.525 1.042 0.254 0.425 0.563 0.817 0.854 1.221 0.127 0.177 0.29 0.392 0.521 0.185 0.273 -0.24 0.831 -0.469 0.617 -0.858 -0.331 -0.602 -0.66 -1.275 -1.469 -1.59'"/>
</svg>